<?xml version="1.0" encoding="utf-8"?>
<!-- Generator: Adobe Illustrator 16.0.3, SVG Export Plug-In . SVG Version: 6.00 Build 0)  -->
<!DOCTYPE svg PUBLIC "-//W3C//DTD SVG 1.0//EN" "http://www.w3.org/TR/2001/REC-SVG-20010904/DTD/svg10.dtd">
<svg version="1.0" id="Warstwa_1" xmlns="http://www.w3.org/2000/svg" xmlns:xlink="http://www.w3.org/1999/xlink" x="0px" y="0px"
	 width="557.6px" height="364.5px" viewBox="0 0 557.6 364.5" enable-background="new 0 0 557.6 364.5" xml:space="preserve">
<path d="M39.7,207.6c0.4,0,0.5,0.3,0.6,0.8c1.5,4.9,2.6,7.5,4.4,12.3c1.6,4.5,5.8,14.2,6.4,15.7c1.1,2.4,1.8,3.3,4.7,3.9
	c0.1,0-0.2,1.4-0.4,1.5c-4.2-0.1-5.2-0.1-6.9-0.1c-1.6,0-3.1,0.2-3.5,0.2c-0.2,0-0.3-0.1-0.4-0.2c-0.1-0.3-0.3-1.2-0.3-1.3
	c2.6-0.7,3-1.1,2.3-3.1c-0.3-1-1.9-5.1-2.5-6.8c-0.2-0.4-0.5-0.8-0.9-0.8c-3.7,0-8,0.1-11,0.2c-0.6,0.1-0.9,0.2-1.3,1.1
	c-0.5,1.1-2.2,5.4-2.2,6.8c0,1.1,0.4,1.5,3,2.3c0.1,0.3-0.2,1.3-0.4,1.4c-2.5-0.1-5.4-0.1-6.5-0.1c-0.9,0-1.7,0.1-1.9,0
	c-0.3,0-0.3-0.1-0.4-0.2c-0.2-0.3-0.4-1.3-0.3-1.4c2.2-0.6,2.7-1.7,4.1-4.3c1.4-2.8,7.2-17.1,10.2-24.1c0.6-1.4,0.9-2.2,1.2-3.1
	c0.1-0.3,0.1-0.3,0.3-0.4C38.3,207.9,39.2,207.6,39.7,207.6L39.7,207.6 M33.5,227.6c0.3,0,1.4,0.1,3.7,0.1c2.4,0,3.8-0.1,5.2-0.1
	c0.4,0,0.5-0.5,0.4-0.7c-2-5.4-3-8.4-4.6-12.5c-0.1-0.2-0.5-0.1-0.6,0.2c-2.4,5.5-3.1,7.2-5,12.4C32.5,227.3,32.8,227.6,33.5,227.6
	L33.5,227.6z"/>
<path d="M57.9,240.6c0.1-0.3,0.1-0.5,0.4-0.6c1.6-0.4,2-0.5,2.2-1c0.4-1.2,0.6-5.8,0.6-13.3c0-4.3,0.1-9-0.1-13.1
	c-0.1-1.6-0.2-2-0.7-2.4c-0.7-0.6-1.2-1-1.5-1.2c-0.4-0.3-0.3-0.7-0.2-0.9c0.4-0.4,5.1-2.3,5.5-2.5c0.6-0.2,0.7,0.1,0.7,0.8
	c0,0.7,0.1,2.5,0,7.7l-0.3,15.8c0,0.5,0.1,0.6,0.3,0.6c0.2,0,0.8-0.3,1.5-0.9c0.7-0.5,4.5-3.9,5.9-5.4c0.4-0.4,0.1-0.6-0.4-0.6
	c-0.9,0-1.2,0-1.5,0c-0.2,0-0.3-0.1-0.2-0.4l0.2-1c0.1-0.3,0.2-0.4,0.4-0.4c2.6-0.1,6.2-0.2,8.9-0.4c0.3,0,0.3,0.1,0.3,0.2
	c0,0.3,0,0.6-0.2,1c-0.1,0.4-0.3,0.5-0.7,0.5c-1.5,0.2-2.9,0.7-4.2,1.6c-1.3,1-3.4,2.6-5.7,4.5c-0.4,0.4-0.6,0.6,0,1.2
	c1,1.1,4.8,5,6.7,6.7c2.4,2.3,2.7,2.6,5.4,3c0.3,0.1,0.3,0.2,0.3,1.2c0,0.4-0.1,0.4-0.3,0.4c-0.6,0-1.6,0-2.5-0.1
	c-1.3-0.1-3.1,0-6.5,0.1c-0.3,0-0.3-0.1-0.4-0.2l-0.2-0.6c-0.3-0.6-0.2-0.7,0-0.7c1.3-0.2,1.7-0.4,1.2-0.8c-2.3-2.2-4.5-4.5-6.8-6.8
	c-0.7-0.7-1.2-0.9-1.4-0.9c-0.2,0-0.2,0.3-0.3,1c-0.1,0.8-0.1,1.4-0.1,3.7c0,2.8,0.4,3.4,0.7,3.4c0.4,0,1.6-0.1,2.1-0.1
	c0.3,0,0.3,0.1,0.3,0.6c0,0.5-0.1,0.9-0.2,1.3c-0.1,0.2-0.3,0.3-0.5,0.3c-0.3,0-1.3-0.1-3.9-0.1c-1.9,0-4.1,0.1-5,0.1
	c-0.3,0-0.4-0.1-0.3-0.3L57.9,240.6"/>
<path d="M85.2,227.5c-0.3,0.1-0.6,0.2-0.9,0.2c-0.2,0-0.6-0.4-0.6-0.7c0-0.4,0.2-0.8,0.4-1.2c1-1.4,4.6-3.6,6-4.1
	c1.1-0.4,2-0.6,2.8-0.6c2.2,0,3.4,0.9,4.2,1.8c0.9,0.9,1,1.8,1,2.4c0,3.6-0.2,7.2-0.2,10.5c0,2.7,0.5,3.7,1.3,3.7
	c0.9,0,2.3-0.6,2.5-0.7c0.2-0.1,0.5,0.3,0.5,0.5l-0.1,0.9c0,0.2-0.1,0.4-0.3,0.6c-0.6,0.4-3.9,1.2-5.7,1.3c-0.9,0-1.7-0.5-2.1-2.6
	c-2,0.9-5.9,2.5-6.5,2.5c-0.7,0-1.7-0.2-2.9-1.1c-0.6-0.6-1.4-1.9-1.4-3.9c0-1.1,0.8-1.9,2.2-2.6c2.6-1.4,5.7-2.2,8.8-2.7
	c0.1-0.7,0.1-2.6,0.1-3.7c0-2.1-0.4-3.3-0.9-3.7c-0.4-0.4-1.7-0.8-2.9-0.8c-1,0-1.7,0.2-2,0.3c-0.2,0.2-0.4,0.5-0.4,2.2
	c0,0.4,0,0.5-0.3,0.6L85.2,227.5 M89.7,239.5c0.5,0,1.9-0.5,3.2-1.1c0.6-0.4,1-0.7,1.1-1.3c0.1-0.7,0.2-2.5,0.2-3.3
	c0-0.4-0.1-0.6-0.3-0.6c-3,0.5-4.9,1.1-6,1.9c-0.3,0.2-0.5,0.6-0.5,1.5C87.4,238.4,87.9,239.5,89.7,239.5L89.7,239.5z"/>
<path d="M103.8,233c0-2.5,0.8-5.4,3.8-8.1c1.8-1.6,5.4-3.5,7.8-3.5c1.2,0,2.9,0.3,3.6,0.5c0.2,0.1,0.6-0.1,0.6-0.4
	c0.1-0.7,0.1-1.7,0.1-3.5c0.1-4.2-0.1-5.9-0.2-6.9c-0.1-0.7-0.2-1-2.5-1.3c-0.3-0.1-0.4-0.3-0.4-0.4l-0.1-0.4
	c-0.1-0.2-0.1-0.3,0.1-0.4c2.4-1,4.1-1.7,6-2.9c0.2-0.1,0.6-0.2,0.7-0.2c0.2,0.1,0.4,0.4,0.4,0.8c-0.1,4.6-0.3,15-0.3,20.9v6.2
	c0,1.6,0.1,4.1,0.3,5.4c0.1,0.7,0.4,0.8,0.7,0.8c0.6,0,1.7-0.5,2.3-0.7c0.3-0.1,0.5-0.1,0.6,0.1c0.2,0.5,0.3,1.1,0.3,1.5
	c0,0.4-0.3,0.5-0.6,0.5c-1.6,0.5-5.6,1.4-6.1,1.4c-0.4,0-0.9-0.5-1-1c-0.1-0.8-0.1-1.9-0.1-2.5c-3.9,1.9-6.9,3.1-7.6,3.1
	c-2.1,0-4.1-1.3-5.3-2.3C104.7,237.9,103.8,235,103.8,233L103.8,233 M113.1,223.7c-0.8,0-2.5,0.5-3.6,1.6c-1,1-1.8,2.7-1.8,4.8
	c0,1.3,0.2,4.9,2.8,7.2c1.6,1.4,2.9,1.5,4.2,1.5c1,0,3.3-0.6,4.1-1.1c0.5-0.3,0.6-0.4,0.7-0.8c0.2-2.2,0.2-8.7-0.1-10.5
	c-0.1-0.5-0.1-0.8-0.9-1.2C117.1,224.2,115.1,223.7,113.1,223.7L113.1,223.7z"/>
<path d="M139.4,221.3c1.6,0,3.4,0.9,4.2,1.8c0.9,0.9,1.6,1.9,2,3.4c0.5-0.1,1.4-0.4,1.6-0.2c0.2,0.1,0.2,0.3,0.1,0.5
	c-0.2,0.5-0.5,1.4-1,1.5c-3.5,0.8-10,2.1-12.2,2.7c-0.3,0.1-0.4,0.3-0.4,0.9c0.2,5,2.9,7.1,6.2,7.1c2.3,0,4.3-1,6.1-2.5
	c0.3-0.2,0.9-0.2,0.8-0.1c-0.1,1.2-0.2,1.6-0.5,1.9c-2.2,1.8-4.6,2.9-6.3,3.4c-0.7,0.2-1.3,0.3-1.9,0.3c-3.6,0-5.9-2.1-6.5-2.9
	c-0.8-0.9-2.3-3.1-2.3-6.4c0-4.5,2.6-7.9,5.3-9.8C136.1,222,137.9,221.3,139.4,221.3L139.4,221.3 M141.7,227c0-1.4-1.9-3.8-4.1-3.8
	c-0.3,0-0.8,0.2-1.3,0.5c-1.5,1-2.3,3.6-2.2,5.7c2.3-0.6,4.7-1,7-1.6C141.4,227.7,141.7,227.6,141.7,227L141.7,227z"/>
<path d="M172.4,241.5c-5.2,0-7.5,0-9.5,0.3c-0.2,0-0.2,0-0.2-0.2c0-0.1,0-0.7,0.1-1c0-0.1,0.1-0.3,0.2-0.4c2-0.6,2.2-0.8,2.2-1.5
	c0.2-1.4,0.4-4.1,0.4-9.3c0-2.1-0.2-2.9-0.7-3.6c-0.7-0.7-1.9-1.4-3.5-1.4c-1.2,0-2.9,0.6-4.6,1.8c-0.4,0.3-0.6,0.6-0.6,1
	c-0.1,1-0.1,4-0.1,6.4c0,5.7,0.1,5.9,2.3,6.1c0.4,0.1,0.4,0.2,0.4,0.3c0,0.2-0.1,1.2-0.2,1.2c-0.5,0-3.4,0.1-4.3,0.1
	c-1.1,0-3.4,0.2-4.1,0.3c-0.2-0.1-0.2-0.9-0.2-1.5c0.4-0.1,1.2-0.4,1.5-0.6c0.4-0.2,0.6-0.4,0.6-0.9c0.1-0.6,0.3-2.2,0.3-6.3
	c0-3.8-0.1-4.9-0.2-5.5c-0.1-0.8-0.3-0.9-1.3-1.1c-0.8-0.1-0.9-0.3-1-0.4c-0.1-0.1-0.3-0.8-0.2-0.9c2.6-1.9,4.2-3,4.9-3.4
	c0.4-0.3,0.6-0.3,0.9-0.3c0.3,0,0.5,0.1,0.5,0.5l-0.1,3.8c1.2-0.7,3.9-2.5,5.6-3.4c0.6-0.3,1.2-0.4,1.8-0.4c2.7,0,4.3,1.5,5.7,3.6
	c2.8-1.6,3.9-2.2,5.2-2.7c0.9-0.4,1.8-0.7,3-0.7c0.9,0,2.2,0.4,3.2,1.2c0.8,0.8,1.8,1.8,1.9,6.5c0.1,2.6,0.1,5,0.1,7.1
	c0,1.9,0.1,2.5,0.2,2.8c0.3,0.5,1,0.7,3.1,1c0.2,0,0.3,0.1,0.3,0.3c0,0.2-0.3,1.3-0.4,1.3H182c-2,0-3.6,0.2-4.7,0.3
	c-0.2,0-0.3-0.1-0.3-0.2c-0.1-0.2-0.2-0.8-0.2-1c0-0.1,0-0.2,0.2-0.3c0.6-0.2,1.2-0.6,1.3-1.2c0.4-2,0.4-5.7,0.4-6.8
	c0-4.3-0.6-5.8-1.3-6.7c-0.7-1-1.7-1.3-3.4-1.3c-1.4,0-3,0.6-4.4,1.4c-0.4,0.3-0.5,0.4-0.5,1c-0.1,3,0,9.7,0.2,11.6
	c0.1,0.8,0.2,0.8,2.7,1.2c0.2,0,0.3,0.2,0.3,0.4V241.5"/>
<path d="M191.1,225.4c-0.1-0.3-0.4-0.4-2.8-0.8c-0.2-0.1-0.3-0.2-0.1-0.4c0.4-0.9,0.4-1,0.7-1.1c2-0.7,3.8-1.4,6-2.2
	c0.1-0.1,0.2-0.1,0.3-0.1s0.1,0.1,0.1,0.4c-0.2,3.5-0.5,10.6-0.5,13.3c0,2.6,0,3.5,0.1,4.1c0.1,0.7,0.2,1,0.7,1
	c1.6-0.1,2-0.1,2.1-0.1c0.2,0,0.5,0.3,0.4,0.5l-0.2,1.3c-0.1,0.3-0.2,0.3-0.4,0.3c-1.5,0-2.9-0.1-4.5-0.1c-2.2,0-4.3,0.3-4.4,0.3
	c-0.3,0-0.4-0.1-0.4-0.3c-0.1-0.4-0.1-0.9-0.1-1.2c0-0.2,0.1-0.3,0.3-0.3c1.8-0.2,2.2-0.4,2.5-1.8c0.2-0.8,0.5-4.4,0.4-7.6
	L191.1,225.4 M194,209.7c1.3,0,2.2,1.1,2.2,2.3c0,1.7-1.2,2.7-2.5,2.7c-1.2,0-2.2-1-2.2-2.3C191.5,210.7,192.9,209.7,194,209.7
	L194,209.7z"/>
<path d="M202.9,227.5c-0.3,0.1-0.6,0.2-0.9,0.2c-0.2,0-0.6-0.4-0.6-0.7c0-0.4,0.2-0.8,0.4-1.2c1-1.4,4.6-3.6,6-4.1
	c1.1-0.4,2-0.6,2.8-0.6c2.2,0,3.4,0.9,4.2,1.8c0.9,0.9,1,1.8,1,2.4c0,3.6-0.2,7.2-0.2,10.5c0,2.7,0.5,3.7,1.3,3.7
	c0.9,0,2.3-0.6,2.5-0.7c0.2-0.1,0.5,0.3,0.5,0.5l-0.1,0.9c0,0.2-0.1,0.4-0.3,0.6c-0.6,0.4-3.9,1.2-5.7,1.3c-0.9,0-1.7-0.5-2.1-2.6
	c-2,0.9-5.9,2.5-6.5,2.5c-0.7,0-1.7-0.2-2.9-1.1c-0.6-0.6-1.4-1.9-1.4-3.9c0-1.1,0.8-1.9,2.2-2.6c2.6-1.4,5.7-2.2,8.8-2.7
	c0.1-0.7,0.1-2.6,0.1-3.7c0-2.1-0.4-3.3-0.9-3.7c-0.4-0.4-1.7-0.8-2.9-0.8c-1,0-1.7,0.2-2,0.3c-0.2,0.2-0.4,0.5-0.4,2.2
	c0,0.4,0,0.5-0.3,0.6L202.9,227.5 M207.5,239.5c0.5,0,1.9-0.5,3.2-1.1c0.6-0.4,1-0.7,1.1-1.3c0.1-0.7,0.2-2.5,0.2-3.3
	c0-0.4-0.1-0.6-0.3-0.6c-3,0.5-4.9,1.1-6,1.9c-0.3,0.2-0.5,0.6-0.5,1.5C205.1,238.4,205.7,239.5,207.5,239.5L207.5,239.5z"/>
<path d="M234.6,242.7c-0.1,0-0.3-0.1-0.5-0.3c-0.2-0.4-0.3-1-0.4-1.8c-0.1-2.6-0.5-5.1-0.8-7.5c-0.2-0.3-0.1-0.5,0.2-0.5
	c0.3,0,0.8-0.2,1.1-0.2c0.3,0,0.4,0.1,0.5,0.6c0.2,0.8,0.6,2,1.5,3.3c1.6,2.4,5,4.4,8.4,4.4c4.5,0,7.7-2.9,7.7-7.1
	c0-1.8-0.9-3.3-2.3-4.3c-1-0.8-2.3-1.5-6.4-3c-3.5-1.4-6-2.5-7.6-4.4c-1-1.2-1.9-3.4-1.9-5.1c0-3.7,1.8-6,4.3-7.3
	c1.2-0.7,4.2-1.7,7.5-1.7c1.4,0,4,0.3,4.9,0.4c0.7,0.2,1.1,0.2,1.4,0.2c0.4,0,0.8-0.4,1.2-1c0.5-0.1,1.2,0,1.3,0.1
	c-0.2,2.8,0,5.3,0.4,8c0.1,0.3,0,0.5-0.2,0.6c-0.2,0.2-0.8,0.5-1.2,0.6c-0.2,0.1-0.2-0.1-0.3-0.3c-0.6-1.8-1-3.6-2.4-4.7
	c-1-1.1-3.6-1.9-6.2-1.9c-3.9,0-6.4,2.5-6.4,5.9c0,1.6,0.7,2.9,1.4,3.7c1.3,1.3,2.7,2.2,6.5,3.5c3.6,1.3,6.1,2.6,7.6,4
	c2,1.8,2.7,3.8,2.7,6.2c0,3.7-1.9,6.4-4.5,7.8c-2.3,1.2-6.8,1.8-8.5,1.8c-2.2,0-4.4-0.4-6.6-0.8c-0.4-0.1-0.7,0-0.9,0.1
	c-0.3,0.2-0.7,0.4-1,0.7C235,242.7,234.9,242.7,234.6,242.7L234.6,242.7"/>
<path d="M271.6,225.3c-2.1,0-6.4,0.1-7.1,0.2c-1.4,0.1-1.7,1.1-2.4,2.9c-0.1,0.4-0.2,0.5-0.4,0.5c-0.2,0-1-0.4-1.2-0.6
	c-0.3-0.4-0.2-0.5-0.1-0.8c1.2-2.4,2.4-4.9,3.7-7.1c0.3,0,0.6,0.1,0.9,0.3c0.1,0.1,0.2,0.2,0.2,0.3c0,0.3-0.1,0.7-0.1,1
	c0,0.3,0.5,0.4,1.2,0.4c0.7,0,9.2,0,12-0.3c0.6-0.1,0.9-0.1,1.1-0.1c0.2,0,0.6,0.7,0.6,0.7c-0.1,0.3-1.4,1.8-3.2,3.6
	c-1.4,1.4-7.1,7.9-9.9,11.1c-0.3,0.3-0.4,0.7-0.2,0.8c0.4,0.2,2.1,0.4,6,0.3c2.6,0,3.4-0.2,4.1-0.3c0.4-0.1,0.8-0.5,1.4-1.6
	c0.2-0.5,0.5-0.9,0.6-0.9c0.3,0,0.9,0.7,1,1c0.2,0.3,0.2,0.5,0.1,0.7c-0.3,0.5-2.1,4.3-3.3,7.2c-0.3-0.1-0.7-0.3-0.9-0.5
	c-0.2-0.2-0.2-0.3-0.2-0.4c0-0.4,0.2-1.4,0.3-1.7c-0.4-0.2-2.1-0.4-10.4-0.4c-2.9,0-3.9,0.2-4.1,0.2c-0.3,0-0.3,0-0.4-0.1
	c-0.3-0.2-0.7-0.8-0.8-1c4.7-4.1,9.9-9.4,13.9-14.4c0.3-0.4,0.4-1,0-1H271.6"/>
<path d="M288.4,218c0.1,0,0.1,0.1,0.1,0.3c0,0.7-0.3,3.4-0.3,3.8c2.4,0,5.4-0.3,7.2-0.3c0.5,0,0.6,0.2,0.6,0.6c0,0.5-0.1,1-0.3,1.7
	c-0.1,0.4-0.4,0.5-0.8,0.5c-1.5,0.1-3.9,0.1-6.6,0.2c-0.2,0-0.3,0.2-0.3,0.7c-0.2,2.3-0.1,7.6-0.1,10.4c0,2.2,1.5,3.5,3.8,3.5
	c1.2,0,2-0.4,3.2-1.1c0.3-0.2,0.4-0.2,0.4,0.1c0.1,0.4,0.2,0.7,0.2,1c0,0.3-0.2,0.5-0.4,0.6c-1.9,1.1-3.9,2.2-6.4,2.2
	c-0.9,0-2.8-0.4-3.9-1.6c-0.7-0.8-0.8-1.7-0.7-3.7c0.1-2.7,0.1-9.8,0.2-11.2c0.1-0.4-0.2-0.7-0.5-0.7c-0.7-0.1-1.7-0.1-2.1-0.1
	c-0.1-0.1-0.4-0.5-0.3-0.6c1.9-1.7,5-4.7,6.2-5.9C288,218.1,288.3,218,288.4,218L288.4,218"/>
<path d="M303.5,221.3c0.4,0,0.5,0.3,0.6,0.8c0.1,0.5,0.1,1.5-0.1,3.6c-0.1,2.4-0.3,7-0.3,10.2c0,2.4,2.5,3.4,4.1,3.4
	c1.8-0.1,3.5-0.8,4.8-1.7c0.3-0.2,0.5-0.4,0.5-1.1c0.2-1.5,0.4-3.8,0.4-6.3c0-3.5-0.2-4.7-0.5-5.3c-0.3-0.5-0.9-0.6-2.6-1.1
	c-0.3-0.1-0.4-0.2-0.4-0.3c-0.1-0.2-0.2-0.8-0.2-1c0-0.1,0.1-0.2,0.2-0.2c0.2-0.1,4.4-0.6,6.5-0.6c0.6,0,0.7,0.2,0.8,0.6
	c0.1,0.5,0.1,0.8,0.1,2.2c-0.1,1.5-0.2,3.2-0.2,6.4v4.9c0,1.6,0.2,2.8,0.3,3.1c0.1,0.3,0.2,0.3,0.4,0.3c0.3-0.1,1.5-0.3,2.6-0.6
	c0.2-0.1,0.6,0.2,0.5,0.5c-0.4,1.6-0.5,1.7-0.7,1.7c-2.5,0.2-5.7,1.1-6.2,1.2c-0.3,0-0.5,0.1-0.7-0.3c-0.3-0.3-0.4-0.5-0.4-0.7
	l0.1-2.2c-1.3,0.6-3.3,1.7-4.6,2.3c-1,0.5-2.2,0.8-3.2,0.8c-1.7,0-3.5-0.6-4.6-2.4c-0.5-0.8-0.6-2.2-0.6-3.3c0-5.2,0.1-8.7,0.1-10.4
	c0-0.8-0.1-1.1-2-2c-0.3-0.2-0.5-0.3-0.5-0.8c0-0.5,0-0.6,0.3-0.7C298.8,222.4,303,221.3,303.5,221.3L303.5,221.3"/>
<path d="M322.9,240.6c0.1-0.3,0.1-0.5,0.4-0.6c1.6-0.4,2-0.5,2.2-1c0.4-1.2,0.6-5.8,0.6-13.3c0-4.3,0.1-9-0.1-13.1
	c0-1.6-0.2-2-0.7-2.4c-0.7-0.6-1.2-1-1.5-1.2c-0.4-0.3-0.3-0.7-0.2-0.9c0.4-0.4,5.1-2.3,5.5-2.5c0.6-0.2,0.7,0.1,0.7,0.8
	c0,0.7,0.1,2.5,0,7.7l-0.3,15.8c0,0.5,0.1,0.6,0.3,0.6c0.2,0,0.8-0.3,1.5-0.9c0.7-0.5,4.5-3.9,5.9-5.4c0.4-0.4,0-0.6-0.4-0.6
	c-0.9,0-1.2,0-1.5,0c-0.2,0-0.3-0.1-0.2-0.4l0.2-1c0.1-0.3,0.2-0.4,0.4-0.4c2.6-0.1,6.2-0.2,8.9-0.4c0.3,0,0.3,0.1,0.3,0.2
	c0,0.3,0,0.6-0.2,1c-0.1,0.4-0.3,0.5-0.7,0.5c-1.5,0.2-2.9,0.7-4.2,1.6c-1.3,1-3.4,2.6-5.7,4.5c-0.4,0.4-0.6,0.6,0,1.2
	c1,1.1,4.8,5,6.7,6.7c2.4,2.3,2.7,2.6,5.4,3c0.3,0.1,0.3,0.2,0.3,1.2c0,0.4-0.1,0.4-0.3,0.4c-0.6,0-1.6,0-2.5-0.1
	c-1.3-0.1-3.1,0-6.5,0.1c-0.3,0-0.3-0.1-0.4-0.2l-0.2-0.6c-0.3-0.6-0.2-0.7,0-0.7c1.3-0.2,1.7-0.4,1.2-0.8c-2.3-2.2-4.5-4.5-6.8-6.8
	c-0.7-0.7-1.2-0.9-1.4-0.9c-0.2,0-0.2,0.3-0.3,1c-0.1,0.8-0.1,1.4-0.1,3.7c0,2.8,0.4,3.4,0.7,3.4c0.4,0,1.6-0.1,2.1-0.1
	c0.3,0,0.3,0.1,0.3,0.6c0,0.5,0,0.9-0.2,1.3c0,0.2-0.3,0.3-0.5,0.3c-0.3,0-1.3-0.1-3.9-0.1c-1.9,0-4.1,0.1-5,0.1
	c-0.3,0-0.4-0.1-0.3-0.3L322.9,240.6"/>
<path d="M359.5,240.2c2.7-0.4,3.6-0.6,3.9-2.4c0.1-0.8,0.3-3.3,0.3-8v-8.2c0-5.6-0.1-9.4-0.7-10.5c-0.4-0.8-0.7-0.9-3.4-0.9
	c-0.3,0-0.3-0.1-0.3-0.4c0-0.3,0.3-1,0.5-1.3c1,0,3.8,0.2,5.5,0.2c1.3,0,6.2-0.1,7-0.1c2.7,0,6.5,0.5,9.9,3c2.9,2.1,3.7,5.5,3.7,7
	c0,3.3-1.3,5.3-3.5,7.4c-3,3-7.9,3.9-11.9,3.9c-0.9,0-1.8,0-2.4,0c-0.2,0-0.5,0.1-0.5,1.4c0,1.5,0.1,3.7,0.3,5.7
	c0.1,1.4,0.4,2.2,1.8,2.5c0.4,0.2,1.8,0.4,3.3,0.7c0.4,0.1,0.4,0.1,0.4,0.3c0,0.7-0.1,1.1-0.2,1.3c-4.5,0-7-0.1-8.1-0.1
	c-2.2,0-3.8,0.1-5.2,0.2c-0.2,0-0.3,0-0.3-0.4L359.5,240.2 M380.8,218.8c0-1,0.2-8.7-9-8.7c-2.2,0-3.1,0.4-3.3,0.6
	c-0.3,0.1-0.5,0.4-0.5,1.2c-0.1,1.8-0.3,11.9-0.3,14.8c0,0.7,0.1,0.8,0.6,0.9c0.6,0.3,1.5,0.5,2.5,0.5c1.3,0,3.3-0.2,4.4-0.6
	C377.9,226.4,380.8,223.6,380.8,218.8L380.8,218.8z"/>
<path d="M391.3,225.4c0-0.3-0.4-0.4-2.7-0.8c-0.2-0.1-0.3-0.2-0.1-0.4c0.4-0.9,0.4-1,0.7-1.1c2-0.7,3.8-1.4,6-2.2
	c0.1-0.1,0.2-0.1,0.3-0.1c0.1,0,0.1,0.1,0.1,0.4c-0.2,3.5-0.5,10.6-0.5,13.3c0,2.6,0,3.5,0.1,4.1c0.1,0.7,0.2,1,0.7,1
	c1.6-0.1,2-0.1,2.1-0.1c0.2,0,0.5,0.3,0.4,0.5l-0.2,1.3c-0.1,0.3-0.2,0.3-0.4,0.3c-1.5,0-2.9-0.1-4.5-0.1c-2.2,0-4.3,0.3-4.4,0.3
	c-0.3,0-0.4-0.1-0.4-0.3c-0.1-0.4-0.1-0.9-0.1-1.2c0-0.2,0.1-0.3,0.3-0.3c1.8-0.2,2.2-0.4,2.5-1.8c0.2-0.8,0.5-4.4,0.4-7.6
	L391.3,225.4 M394.2,209.7c1.3,0,2.2,1.1,2.2,2.3c0,1.7-1.2,2.7-2.5,2.7c-1.2,0-2.2-1-2.2-2.3C391.7,210.7,393.1,209.7,394.2,209.7
	L394.2,209.7z"/>
<path d="M414.5,250.8c-0.8,0.8-2.6,1.6-4.4,1.6c-2.4,0-4-1.4-4-3.7c0-2.6,3-5.5,4.7-6.8c-0.6,0.2-1,0.1-1.2,0.1
	c-3.3,0-5.8-2.2-6.3-2.9c-0.8-0.9-2.3-3.2-2.3-6.4c0-4.5,2.6-7.9,5.3-9.8c1.3-1,3.1-1.6,4.5-1.6c1.6,0,3.4,0.9,4.3,1.8
	c0.9,0.9,1.6,2,2,3.4c0.5-0.1,1.4-0.3,1.6-0.2c0.2,0.2,0.2,0.3,0.1,0.5c-0.2,0.5-0.5,1.4-1,1.5c-3.5,0.8-10,2.1-12.2,2.7
	c-0.3,0.1-0.4,0.4-0.4,0.9c0.2,5,2.9,7.1,6.1,7.1c2.4,0,4.5-0.9,6.2-2.4c0.3-0.3,0.9-0.2,0.8-0.1c-0.1,1.2-0.2,1.5-0.5,1.8
	c-1.8,1.6-3.1,2.3-4.1,2.9c-3,2.7-4.4,4.9-4.4,6.2c0,1.8,1.3,2.3,2.4,2.3c1.1,0,2.1-0.2,3.2-0.6c0.1,0.1,0.2,0.2,0.3,0.3
	L414.5,250.8 M413.1,226.9c0-1.4-1.9-3.8-4-3.8c-0.3,0-0.8,0.2-1.3,0.5c-1.5,1.1-2.3,3.6-2.2,5.8c2.3-0.6,4.6-1,6.9-1.6
	C412.8,227.7,413.1,227.5,413.1,226.9L413.1,226.9z"/>
<path d="M420.4,240.6c0-0.3,0.1-0.5,0.4-0.6c1.6-0.4,2-0.5,2.2-1c0.4-1.2,0.6-5.8,0.6-13.3c0-4.3,0.1-9-0.1-13.1
	c0-1.6-0.2-2-0.7-2.4c-0.7-0.6-1.2-1-1.5-1.2c-0.4-0.3-0.3-0.7-0.2-0.9c0.4-0.4,5.1-2.3,5.5-2.5c0.6-0.2,0.7,0.1,0.7,0.8
	c0,0.7,0.1,2.5,0,7.7l-0.3,15.8c0,0.5,0.1,0.6,0.3,0.6c0.2,0,0.8-0.3,1.5-0.9c0.7-0.5,4.5-3.9,5.9-5.4c0.4-0.4,0-0.6-0.4-0.6
	c-0.9,0-1.2,0-1.5,0c-0.2,0-0.3-0.1-0.2-0.4l0.2-1c0.1-0.3,0.2-0.4,0.4-0.4c2.6-0.1,6.2-0.2,8.9-0.4c0.3,0,0.3,0.1,0.3,0.2
	c0,0.3,0,0.6-0.2,1c-0.1,0.4-0.3,0.5-0.7,0.5c-1.5,0.2-2.9,0.7-4.2,1.6c-1.3,1-3.4,2.6-5.7,4.5c-0.4,0.4-0.6,0.6,0,1.2
	c1,1.1,4.8,5,6.7,6.7c2.4,2.3,2.7,2.6,5.4,3c0.3,0.1,0.3,0.2,0.3,1.2c0,0.4-0.1,0.4-0.3,0.4c-0.6,0-1.6,0-2.5-0.1
	c-1.3-0.1-3.1,0-6.5,0.1c-0.3,0-0.3-0.1-0.4-0.2l-0.2-0.6c-0.3-0.6-0.2-0.7,0-0.7c1.3-0.2,1.7-0.4,1.2-0.8c-2.3-2.2-4.5-4.5-6.8-6.8
	c-0.7-0.7-1.2-0.9-1.4-0.9c-0.2,0-0.2,0.3-0.3,1c-0.1,0.8-0.1,1.4-0.1,3.7c0,2.8,0.4,3.4,0.7,3.4c0.4,0,1.6-0.1,2.1-0.1
	c0.3,0,0.3,0.1,0.3,0.6c0,0.5,0,0.9-0.2,1.3c-0.1,0.2-0.3,0.3-0.5,0.3c-0.3,0-1.3-0.1-3.9-0.1c-1.9,0-4.1,0.1-5,0.1
	c-0.3,0-0.4-0.1-0.3-0.3L420.4,240.6"/>
<path d="M445.8,240.4c1.6-0.6,2.2-0.9,2.3-2.3c0.3-1.5,0.4-4.5,0.4-7c0-2-0.1-3.8-0.2-4.7c0-0.5-0.2-0.7-2.5-1.3
	c-0.2-0.3-0.3-0.2-0.1-1c0-0.2,0.2-0.3,0.5-0.4c2.2-1.1,4.4-2.3,4.7-2.5c0.2-0.1,0.4-0.2,0.6-0.2c0.3,0,0.5,0.2,0.5,0.4
	c0.1,0.9,0.1,1.8,0.1,2.7c0,0.3,0.1,0.5,0.3,0.5c2.2-1.3,3.1-1.7,4.5-2.3c0.8-0.4,1.9-0.7,2.8-0.7c1.5,0,2.5,0.4,3.5,1.1
	c1.3,1,2,2.9,2.2,5c0.1,1.1,0.1,2.3,0.1,4.5c0,3.7,0.1,5.9,0.1,7.1c0,0.5,0,0.5,0.2,0.5c0.5,0,1.9-0.2,2.7-0.2
	c0.2,0,0.3,0.2,0.3,0.5c0,0.3-0.2,1-0.2,1.2c-0.1,0.3-0.2,0.3-0.4,0.3c-4.5,0-6.1,0.2-8,0.2c-0.3,0-0.6,0-0.6-0.2l-0.3-1
	c1.5-0.5,2-0.9,2.2-2.3c0.3-1.5,0.3-3.4,0.3-7c0-2.8,0-4.2-1.2-5.5c-0.8-0.9-1.9-1.3-3.4-1.3c-1.2,0-3.2,0.7-4.3,1.4
	c-0.5,0.4-0.5,0.7-0.6,1.2c-0.1,1.8-0.1,9.1-0.1,11.8c0,0.7,0.1,0.8,2.8,1.2c0.3,0.1,0.4,0.2,0.3,0.4l-0.3,1.1h-4.3
	c-2,0-3.7,0.3-4.7,0.3c-0.1,0-0.2-0.1-0.2-0.3L445.8,240.4"/>
<path d="M483.5,223.1c0-0.4,0.1-0.9,0.2-1.1c1,0,3.4,0,4.8-0.2c0.9-0.1,1.5-0.1,1.7-0.1c0.2,0,0.4,0,0.5,0.2
	c0.2,0.2,0.4,1.2,0.4,1.3c-2,0.7-2.5,1.8-3.9,4.5c-3.8,7.2-5.8,11.8-7.2,15.3c-1.5,3.8-3.1,8.2-3.4,9.2c-0.4,1.3-0.3,2-0.3,2.2
	c0,0.2,0,0.4-0.2,0.6c-0.4,0.3-0.8,0.3-1.1,0.3c-0.8,0-1.7-0.3-2.3-0.8c-0.5-0.5-0.5-1.1-0.2-1.6c0.2-0.4,4.8-8.9,5.1-9.8
	c0.1-0.4,0.2-1.2,0-1.9c-1.6-5.1-3-9.4-5.2-15.5c-0.5-1.3-0.8-1.5-2.1-1.8c-0.4-0.2-0.4-0.2-0.4-0.4c0-0.2,0.1-0.4,0.3-1
	c0.2-0.4,0.3-0.4,0.6-0.5c3.6,0,5.7-0.2,7.4-0.2c0.4,0,0.5,0.1,0.6,0.2c0.1,0.3,0.4,1,0.3,1.3c-2.5,0.8-2.9,0.9-2.4,2.6
	c0.6,2,2.7,9.4,3.8,11.5c1.7-3.1,3.7-7.3,5-11c0.6-1.7,0.6-2-1.8-2.6C483.5,223.6,483.5,223.4,483.5,223.1L483.5,223.1"/>
<path d="M503.9,221.1c1.7,0,3.8,0.6,4.8,1.7c0.2,0.2,0.4,0.4,0.4,0.7c0,0.7-1,1.6-1.6,1.9c-0.4,0.2-1,0.3-1.2,0.2
	c-0.3-0.1-0.6-0.3-1.1-0.7c-1.2-0.7-2.6-1.3-3.8-1.3c-1.6,0-2.7,0.6-3.4,1.3c-1.3,1.3-1.7,3.3-1.7,6.1c0,3.1,1,5.2,1.6,6
	c1.5,1.8,3.5,2.3,4.7,2.3c1.5,0,4-1.2,5.4-2.1c0.2-0.1,0.6,0.2,0.6,0.3c0,0.3-0.2,1.3-0.6,1.6c-0.7,0.6-3,1.7-4.6,2.3
	c-1.1,0.4-2.2,0.5-2.8,0.5c-1.8,0-4.1-0.8-5.7-2c-1.1-0.9-2.8-3.3-2.8-6.5c0-5.1,2.2-7.1,3.1-7.9c1.1-1.1,3.4-2.5,4.5-3.2
	C500.9,221.6,502.3,221.1,503.9,221.1L503.9,221.1"/>
<path d="M510.6,241c-0.2-0.3-0.1-0.4,0-0.5c2.7-1.2,2.9-1.4,2.9-6.2V214c0-3-0.1-3.1-1.9-4.7c-0.2-0.2-0.2-0.5,0.1-0.7
	c0.8-0.6,3.8-2.3,5.1-3.1c0.3-0.1,0.6-0.1,0.7,0.1c0.1,0.1,0.1,0.3,0.1,0.6c0,3.2-0.2,6.5-0.2,10.1v7.5c0,0.2,0.2,0.4,0.4,0.3
	c1-0.4,4-1.8,5.3-2.3c1.1-0.4,1.9-0.5,2.8-0.5c4.6,0,5.6,3.9,5.6,8.1c0,1.5-0.2,5-0.2,8.3c0,1.7,0.2,1.8,2.2,2.4
	c0.5,0.1,0.5,0.2,0.5,0.4v0.8c0,0.3,0,0.4-0.4,0.4h-3.6c-2.4,0-4.6,0.3-5.1,0.3c-0.2,0-0.3-0.1-0.3-0.7c-0.1-0.6-0.1-0.7,0.1-0.8
	c0.2-0.1,1-0.4,1.4-0.6c0.9-0.5,1.1-0.8,1.3-2c0.3-2.3,0.2-3.8,0.2-5.8c0-4.7-0.9-6.1-1.9-6.9c-1.2-0.9-2.1-1-3.1-1
	c-1.5,0-3.4,0.6-4.8,1.4c-0.5,0.2-0.6,0.6-0.6,1.6v5.4c0,2.7,0.1,4.2,0.3,5.5c0.2,1.2,0.4,1.5,2.6,1.7c0.2,0,0.3,0.1,0.4,1.2
	c-0.1,0.4-0.1,0.5-0.3,0.5c-4.1,0-6.9,0-9.1,0.4c-0.3,0.1-0.4,0.1-0.4-0.1L510.6,241"/>
<path d="M3,286.5c-0.1-0.3-0.4-0.4-2.7-0.8c-0.2-0.1-0.3-0.2-0.1-0.4c0.4-0.9,0.4-1,0.7-1.1c2-0.7,3.8-1.4,6-2.2c0.1,0,0.2,0,0.3,0
	s0.1,0.1,0.1,0.4C7,285.8,6.7,293,6.7,295.7c0,2.6,0,3.5,0,4.1c0.1,0.7,0.2,1,0.7,1c1.6-0.1,2-0.1,2.1-0.1c0.2,0,0.5,0.3,0.4,0.5
	l-0.2,1.3c-0.1,0.3-0.2,0.3-0.4,0.3c-1.5,0-2.9-0.1-4.5-0.1c-2.2,0-4.3,0.3-4.4,0.3c-0.3,0-0.4-0.1-0.4-0.3C0,302.3,0,301.8,0,301.5
	c0-0.2,0.1-0.3,0.3-0.3c1.8-0.2,2.2-0.4,2.5-1.8c0.2-0.8,0.5-4.4,0.4-7.6L3,286.5 M6,270.8c1.3,0,2.2,1.1,2.2,2.3
	c0,1.7-1.2,2.7-2.5,2.7c-1.2,0-2.2-1-2.2-2.3C3.4,271.8,4.8,270.8,6,270.8L6,270.8z"/>
<path d="M35.6,302.6c-5.2,0-7.5,0-9.5,0.3c-0.2,0-0.2,0-0.2-0.2c0-0.1,0-0.7,0.1-1c0-0.1,0.1-0.3,0.2-0.4c2-0.6,2.2-0.8,2.2-1.5
	c0.2-1.4,0.4-4.1,0.4-9.3c0-2.1-0.2-2.9-0.7-3.6c-0.7-0.7-1.9-1.4-3.5-1.4c-1.2,0-2.9,0.6-4.6,1.8c-0.4,0.3-0.6,0.6-0.6,1
	c-0.1,1-0.1,4-0.1,6.4c0,5.7,0.1,5.9,2.3,6.1c0.4,0.1,0.4,0.2,0.4,0.3c0,0.2-0.1,1.2-0.2,1.2c-0.5,0-3.4,0.1-4.3,0.1
	c-1.1,0-3.4,0.2-4.1,0.3c-0.2-0.1-0.2-0.9-0.2-1.5c0.4-0.1,1.2-0.4,1.5-0.6c0.4-0.2,0.6-0.4,0.6-0.9c0.1-0.6,0.3-2.2,0.3-6.3
	c0-3.8-0.1-4.9-0.2-5.5c-0.1-0.8-0.3-0.9-1.3-1.1c-0.8-0.1-0.9-0.3-1-0.4c-0.1-0.1-0.3-0.8-0.2-0.9c2.6-1.9,4.2-3,4.9-3.4
	c0.4-0.3,0.6-0.3,0.9-0.3c0.3,0,0.5,0.1,0.5,0.5l-0.1,3.8c1.2-0.7,3.9-2.5,5.6-3.4c0.6-0.3,1.2-0.4,1.8-0.4c2.7,0,4.3,1.5,5.7,3.6
	c2.8-1.6,3.9-2.2,5.2-2.7c0.9-0.4,1.8-0.7,3-0.7c0.9,0,2.2,0.4,3.2,1.2c0.8,0.8,1.8,1.8,1.9,6.5c0.1,2.6,0.1,5,0.1,7.1
	c0,1.9,0.1,2.5,0.2,2.8c0.3,0.5,1,0.7,3.1,1c0.2,0,0.3,0.1,0.3,0.3c0,0.2-0.3,1.3-0.4,1.3h-3.5c-2,0-3.6,0.2-4.7,0.3
	c-0.2,0-0.3-0.1-0.3-0.2c-0.1-0.2-0.2-0.8-0.2-1c0-0.1,0-0.2,0.2-0.3c0.6-0.2,1.2-0.6,1.3-1.2c0.4-2,0.4-5.7,0.4-6.8
	c0-4.3-0.6-5.8-1.3-6.7c-0.7-1-1.7-1.3-3.4-1.3c-1.4,0-3,0.6-4.4,1.4c-0.4,0.3-0.5,0.4-0.5,1c-0.1,3,0,9.7,0.2,11.6
	c0.1,0.8,0.2,0.8,2.7,1.2c0.2,0,0.3,0.2,0.3,0.4V302.6"/>
<path d="M56.3,295.5c0.2,0,0.3,0.2,0.5,1.2c0.3,1.1,0.5,1.4,2,1.9c0.4,0.1,0.6,0.4,0.6,1c0,0.3-0.1,0.5-0.3,0.5
	c-1.8,0.5-1.9,0.6-2.6,3c0,0.2-0.2,0.3-0.7,0.3c-0.8,0-1-0.6-1.7-2.2c-0.2-0.6-0.6-0.8-1.6-1.2c-0.5-0.2-0.7-0.7-0.7-0.9
	c0-0.4,0.5-0.8,1-0.9c1.4-0.3,1.6-0.4,2.1-2C55,295.8,55.6,295.5,56.3,295.5L56.3,295.5"/>
<path d="M83.5,271.2c-1.8,0.2-2.1,0.4-2.2,1.3c-0.1,1.2-0.3,3.3-0.3,8.9v6.5c0,3.1,0,11,0,15.1c0,1.9-0.4,3.1-1,4.2
	c-1.6,2.9-5,5.1-7.5,6.3c-0.7,0.4-1.7,0.7-2.5,0.7c-1.4,0-2.9-0.7-3.6-1.4c-0.4-0.4-0.5-0.7-0.5-1c0-0.3,0.1-0.7,0.3-0.9
	c0.7-0.8,1.2-1.1,1.6-1.5c0.3-0.2,0.7-0.2,1,0.1c0.9,0.6,2.3,1.3,4.1,1.3c1,0,1.8-0.4,2.4-1c0.8-0.8,1.2-1.9,1.3-4.4
	c0.2-3.7,0.2-7.8,0.2-11.3v-10.3c0-5.2-0.1-7.8-0.1-9.2c-0.2-3.1-0.4-3.2-4.3-3.5c0-0.2,0.2-1,0.3-1.3c0.1-0.3,0.4-0.4,0.7-0.4
	c0.9,0,3.3,0.1,4.7,0.1c2.1,0,4.8-0.2,6.2-0.2c0.3,0,0.4,0.1,0.4,0.3l0.3,1.4L83.5,271.2"/>
<path d="M88.8,288.6c-0.3,0.1-0.6,0.2-0.9,0.2c-0.2,0-0.6-0.4-0.6-0.7c0-0.4,0.2-0.8,0.4-1.2c1-1.4,4.6-3.6,6-4.1
	c1.1-0.4,2-0.6,2.8-0.6c2.2,0,3.4,0.9,4.2,1.8c0.9,0.9,1,1.8,1,2.4c0,3.6-0.2,7.2-0.2,10.5c0,2.7,0.5,3.7,1.3,3.7
	c0.9,0,2.3-0.6,2.5-0.7c0.2-0.1,0.5,0.3,0.5,0.5l-0.1,0.9c0,0.2-0.1,0.4-0.3,0.6c-0.6,0.4-3.9,1.2-5.6,1.3c-0.9,0-1.7-0.5-2.1-2.6
	c-2,0.9-5.9,2.5-6.5,2.5c-0.7,0-1.7-0.2-2.9-1.1c-0.6-0.6-1.4-1.9-1.4-3.9c0-1.1,0.8-1.9,2.2-2.6c2.6-1.4,5.7-2.2,8.8-2.7
	c0.1-0.7,0.1-2.6,0.1-3.7c0-2.1-0.4-3.3-0.9-3.7c-0.4-0.4-1.7-0.8-2.9-0.8c-1,0-1.7,0.2-2,0.3c-0.2,0.2-0.4,0.5-0.4,2.2
	c0,0.4,0,0.5-0.3,0.6L88.8,288.6 M93.4,300.6c0.5,0,1.9-0.5,3.2-1.1c0.6-0.4,1-0.7,1.1-1.3c0.1-0.7,0.2-2.5,0.2-3.3
	c0-0.4-0.1-0.6-0.3-0.6c-3,0.5-4.9,1.1-6,1.9c-0.3,0.2-0.5,0.6-0.5,1.5C91.1,299.5,91.6,300.6,93.4,300.6L93.4,300.6z"/>
<path d="M107.8,301.5c1.6-0.6,2.2-0.9,2.3-2.3c0.3-1.5,0.4-4.5,0.4-7c0-2-0.1-3.8-0.2-4.7c0-0.5-0.2-0.7-2.5-1.3
	c-0.2-0.3-0.3-0.2-0.1-1c0-0.2,0.2-0.3,0.5-0.4c2.2-1.1,4.4-2.3,4.7-2.5c0.2-0.1,0.4-0.2,0.6-0.2c0.3,0,0.5,0.2,0.5,0.4
	c0.1,0.9,0.1,1.8,0.1,2.7c0,0.3,0.1,0.5,0.3,0.5c2.2-1.3,3.1-1.7,4.5-2.3c0.8-0.4,1.9-0.7,2.9-0.7c1.5,0,2.5,0.4,3.5,1.1
	c1.3,1,2,2.9,2.2,5c0.1,1.1,0.1,2.3,0.1,4.5c0,3.7,0.1,5.9,0.1,7.1c0,0.5,0.1,0.5,0.2,0.5c0.5,0,1.9-0.2,2.7-0.2
	c0.2,0,0.3,0.2,0.3,0.5s-0.2,1-0.2,1.2c-0.1,0.3-0.2,0.3-0.4,0.3c-4.5,0-6.1,0.2-8,0.2c-0.3,0-0.6,0-0.6-0.2l-0.3-1
	c1.5-0.5,2-0.9,2.2-2.3c0.3-1.5,0.3-3.4,0.3-7c0-2.8-0.1-4.2-1.2-5.5c-0.8-0.9-1.9-1.3-3.4-1.3c-1.2,0-3.2,0.7-4.3,1.4
	c-0.5,0.4-0.5,0.7-0.6,1.2c-0.1,1.8-0.1,9.1-0.1,11.8c0,0.7,0.1,0.8,2.8,1.2c0.3,0.1,0.4,0.2,0.3,0.4l-0.3,1.1h-4.3
	c-2,0-3.7,0.3-4.7,0.3c-0.1,0-0.2-0.1-0.2-0.3L107.8,301.5"/>
<path d="M135.5,288.6c-0.3,0.1-0.6,0.2-0.9,0.2c-0.2,0-0.6-0.4-0.6-0.7c0-0.4,0.2-0.8,0.4-1.2c1-1.4,4.6-3.6,6-4.1
	c1.1-0.4,2-0.6,2.8-0.6c2.2,0,3.4,0.9,4.2,1.8c0.9,0.9,1,1.8,1,2.4c0,3.6-0.2,7.2-0.2,10.5c0,2.7,0.5,3.7,1.3,3.7
	c0.9,0,2.3-0.6,2.5-0.7c0.2-0.1,0.5,0.3,0.5,0.5l-0.1,0.9c0,0.2-0.1,0.4-0.3,0.6c-0.6,0.4-3.9,1.2-5.6,1.3c-0.9,0-1.7-0.5-2.1-2.6
	c-2,0.9-5.9,2.5-6.5,2.5c-0.7,0-1.7-0.2-2.9-1.1c-0.6-0.6-1.4-1.9-1.4-3.9c0-1.1,0.8-1.9,2.2-2.6c2.6-1.4,5.7-2.2,8.8-2.7
	c0.1-0.7,0.1-2.6,0.1-3.7c0-2.1-0.4-3.3-0.9-3.7c-0.4-0.4-1.7-0.8-2.9-0.8c-1,0-1.7,0.2-2,0.3c-0.2,0.2-0.4,0.5-0.4,2.2
	c0,0.4,0,0.5-0.3,0.6L135.5,288.6 M140,300.6c0.5,0,1.9-0.5,3.2-1.1c0.6-0.4,1-0.7,1.1-1.3c0.1-0.7,0.2-2.5,0.2-3.3
	c0-0.4-0.1-0.6-0.3-0.6c-3,0.5-4.9,1.1-6,1.9c-0.3,0.2-0.5,0.6-0.5,1.5C137.7,299.5,138.2,300.6,140,300.6L140,300.6z"/>
<path d="M175.6,302.9c-3.2-0.2-6.3-0.2-9.7-0.2c-0.3,0-0.5-0.1-0.6-0.2c-0.1-0.3-0.2-1.3-0.1-1.4c2.4-0.3,3.3-0.8,3.6-3
	c0.4-3.2,0.6-8.7,0.8-14.8l0.3-9.9c0.1-1.6-0.4-2.1-4.5-2.3c0.1-0.3,0.3-1.1,0.5-1.4c0.1-0.2,0.3-0.3,0.7-0.3c1.2,0,3.8,0.2,5.1,0.2
	c0.9,0,1.8,0,2.5,0c0.1,0.8,0.3,1.6,0.5,2c2.4,5.4,9,17.6,12.1,22.8c0.1,0.1,0.4,0.2,0.5-0.2c3.6-6.7,8.6-16.4,11.6-22.8
	c0.2-0.3,0.3-1,0.3-1.9c3.9,0,6.3-0.2,8.5-0.2c0.3,0.2,0.3,1.4,0.2,1.6c-3.5,0.3-4.1,0.7-4.2,2.2c-0.1,1.7-0.1,5.1,0.1,11.9
	c0,5.9,0,9.6,0.1,11.6c0.2,3.5,0.4,3.6,3.6,4.1c0.2,0.1,0.3,0.9,0.3,1.3c0,0.3-0.1,0.4-0.3,0.4c-1.2,0-2.4,0-3.7,0
	c-1.5,0-5.1,0.1-7.4,0.3l0.1-1.1c0-0.5,0.1-0.6,0.4-0.7c2.2-0.6,2.3-0.8,2.6-2.4c0.2-1.4,0.2-3.8,0.6-24c0.1-0.4-0.3-0.3-0.3-0.2
	c-0.7,1.3-6.3,13.1-8.9,18.6c-2.6,5.2-3.5,7.4-3.7,7.9c-0.6,1.2-0.8,1.6-1.2,1.6c-0.2,0-0.4-0.2-0.6-0.5c-0.3-0.5-1.4-3-2.2-4.7
	c-5-10.5-9.2-19.1-11.1-22.8c-0.1,3.9-0.1,11.3-0.1,17.1c0,5.1,0.2,7.1,0.3,8c0.2,0.8,0.9,1.1,2.5,1.4c0.7,0.1,0.9,0.2,0.9,0.6
	L175.6,302.9"/>
<path d="M212.9,288.6c-0.3,0.1-0.6,0.2-0.9,0.2c-0.2,0-0.6-0.4-0.6-0.7c0-0.4,0.2-0.8,0.4-1.2c1-1.4,4.6-3.6,6-4.1
	c1.1-0.4,2-0.6,2.8-0.6c2.2,0,3.4,0.9,4.2,1.8c0.9,0.9,1,1.8,1,2.4c0,3.6-0.2,7.2-0.2,10.5c0,2.7,0.5,3.7,1.3,3.7
	c0.9,0,2.3-0.6,2.5-0.7c0.2-0.1,0.5,0.3,0.5,0.5l-0.1,0.9c0,0.2-0.1,0.4-0.3,0.6c-0.6,0.4-3.9,1.2-5.7,1.3c-0.9,0-1.7-0.5-2.1-2.6
	c-2,0.9-5.9,2.5-6.5,2.5c-0.7,0-1.7-0.2-2.9-1.1c-0.6-0.6-1.4-1.9-1.4-3.9c0-1.1,0.8-1.9,2.2-2.6c2.6-1.4,5.7-2.2,8.8-2.7
	c0.1-0.7,0.1-2.6,0.1-3.7c0-2.1-0.4-3.3-0.9-3.7c-0.4-0.4-1.7-0.8-2.9-0.8c-1,0-1.7,0.2-2,0.3c-0.2,0.2-0.4,0.5-0.4,2.2
	c0,0.4,0,0.5-0.3,0.6L212.9,288.6 M217.5,300.6c0.5,0,1.9-0.5,3.2-1.1c0.6-0.4,1-0.7,1.1-1.3c0.1-0.7,0.2-2.5,0.2-3.3
	c0-0.4-0.1-0.6-0.3-0.6c-3,0.5-4.9,1.1-6,1.9c-0.3,0.2-0.5,0.6-0.5,1.5C215.2,299.5,215.7,300.6,217.5,300.6L217.5,300.6z"/>
<path d="M237.7,279.1c0.1,0,0.1,0.1,0.1,0.3c0,0.7-0.3,3.4-0.3,3.8c2.4,0,5.4-0.3,7.2-0.3c0.5,0,0.6,0.2,0.6,0.6
	c0,0.5-0.1,1-0.3,1.7c-0.1,0.4-0.4,0.5-0.8,0.5c-1.5,0.1-3.9,0.1-6.6,0.2c-0.2,0-0.3,0.2-0.3,0.7c-0.2,2.3-0.1,7.6-0.1,10.4
	c0,2.2,1.5,3.5,3.8,3.5c1.2,0,2-0.4,3.2-1.1c0.3-0.2,0.4-0.2,0.4,0.1c0.1,0.4,0.2,0.7,0.2,1c0,0.3-0.2,0.5-0.4,0.6
	c-1.9,1.1-3.9,2.2-6.4,2.2c-0.9,0-2.8-0.4-3.9-1.6c-0.7-0.8-0.8-1.7-0.7-3.7c0.1-2.7,0.1-9.8,0.2-11.2c0-0.4-0.2-0.7-0.5-0.7
	c-0.7-0.1-1.7-0.1-2.1-0.1c-0.1-0.1-0.4-0.5-0.3-0.6c1.9-1.7,5-4.7,6.2-5.9C237.3,279.2,237.5,279.1,237.7,279.1L237.7,279.1"/>
<path d="M257.1,282.4c1.6,0,3.4,0.9,4.2,1.8c0.9,0.9,1.6,1.9,2,3.4c0.5-0.1,1.4-0.4,1.6-0.2c0.2,0.1,0.2,0.3,0.1,0.5
	c-0.2,0.5-0.5,1.4-1,1.5c-3.5,0.8-10,2.1-12.2,2.7c-0.3,0.1-0.4,0.3-0.4,0.9c0.2,5,2.9,7.1,6.2,7.1c2.3,0,4.3-1,6.1-2.5
	c0.3-0.2,0.9-0.2,0.8,0c-0.1,1.2-0.2,1.6-0.5,1.9c-2.2,1.8-4.6,2.9-6.3,3.4c-0.7,0.2-1.3,0.3-1.9,0.3c-3.6,0-5.9-2.1-6.5-2.9
	c-0.8-0.9-2.3-3.1-2.3-6.4c0-4.5,2.6-7.9,5.3-9.8C253.8,283.1,255.6,282.4,257.1,282.4L257.1,282.4 M259.4,288.1
	c0-1.4-1.9-3.8-4.1-3.8c-0.3,0-0.8,0.2-1.3,0.5c-1.5,1-2.3,3.6-2.2,5.7c2.3-0.6,4.7-1,7-1.6C259.1,288.8,259.4,288.7,259.4,288.1
	L259.4,288.1z"/>
<path d="M273.8,304.1c0,3.8-0.6,5.2-1.8,6.7c-1.7,2.1-4.9,4.4-6.8,5c-0.7,0.2-1.4,0.3-1.9,0.3c-0.6,0-2.3-0.4-2.6-1
	c-0.2-0.4-0.3-1-0.1-1.4c0.3-0.4,1.7-1.8,2.1-1.8c0.2-0.1,0.5,0,0.8,0.2c0.8,0.3,2.2,1,2.8,1c0.5,0,1.1-0.1,1.8-0.6
	c0.8-0.6,1.4-1.4,1.5-3.4c0.2-2,0.5-6.5,0.5-11.4v-3c0-2.8,0-5.7-0.1-6.6c-0.1-1.5-0.2-1.6-2.5-2c-0.2-0.1-0.1-1.1,0.1-1.2
	c2.2-1,5.2-2.3,5.8-2.7c0.2-0.2,0.5-0.2,0.6-0.2c0.2,0.1,0.3,0.3,0.3,0.7c0,1.1-0.4,6.4-0.4,11.4V304.1 M272.5,270.7
	c1.4,0,2.4,1.6,2.4,2.6c0,1.5-1.3,2.7-2.6,2.7c-1.2,0-2.4-1.3-2.4-2.4C269.9,272,270.9,270.7,272.5,270.7L272.5,270.7z"/>
<path d="M278.1,301.7c0-0.3,0.1-0.5,0.4-0.6c1.6-0.4,2-0.5,2.2-1c0.4-1.2,0.6-5.8,0.6-13.3c0-4.3,0.1-9-0.1-13.1
	c-0.1-1.6-0.2-2-0.7-2.4c-0.7-0.6-1.2-1-1.5-1.2c-0.4-0.3-0.3-0.7-0.2-0.9c0.4-0.4,5.1-2.3,5.5-2.5c0.6-0.2,0.7,0.1,0.7,0.8
	c0,0.7,0.1,2.5,0,7.7l-0.3,15.8c0,0.5,0.1,0.6,0.3,0.6c0.2,0,0.8-0.3,1.5-0.9c0.7-0.5,4.5-3.9,5.9-5.4c0.4-0.4,0.1-0.6-0.4-0.6
	c-0.9,0-1.2,0-1.5,0c-0.2,0-0.3-0.1-0.2-0.4l0.2-1c0.1-0.3,0.2-0.4,0.4-0.4c2.6-0.1,6.2-0.2,8.9-0.4c0.3,0,0.3,0.1,0.3,0.2
	c0,0.3,0,0.6-0.2,1c-0.1,0.4-0.3,0.5-0.7,0.5c-1.5,0.2-2.9,0.7-4.2,1.6c-1.3,1-3.4,2.6-5.7,4.5c-0.4,0.4-0.6,0.6,0,1.2
	c1,1.1,4.8,5,6.7,6.7c2.4,2.3,2.7,2.6,5.4,3c0.3,0.1,0.3,0.2,0.3,1.2c0,0.4-0.1,0.4-0.3,0.4c-0.6,0-1.6,0-2.5-0.1
	c-1.3-0.1-3.1,0-6.5,0.1c-0.3,0-0.3-0.1-0.4-0.2L292,302c-0.3-0.6-0.2-0.7,0-0.7c1.3-0.2,1.7-0.4,1.2-0.8c-2.3-2.2-4.5-4.5-6.8-6.8
	c-0.7-0.7-1.2-0.9-1.4-0.9c-0.2,0-0.2,0.3-0.3,1c-0.1,0.8-0.1,1.4-0.1,3.7c0,2.8,0.4,3.4,0.7,3.4c0.4,0,1.6-0.1,2.1-0.1
	c0.3,0,0.3,0.1,0.3,0.6c0,0.5-0.1,0.9-0.2,1.3c-0.1,0.2-0.3,0.3-0.5,0.3c-0.3,0-1.3-0.1-3.9-0.1c-1.9,0-4.1,0.1-5,0.1
	c-0.3,0-0.4-0.1-0.3-0.3L278.1,301.7"/>
<path d="M306.1,286.5c-0.1-0.3-0.4-0.4-2.8-0.8c-0.2-0.1-0.3-0.2-0.1-0.4c0.4-0.9,0.4-1,0.7-1.1c2-0.7,3.8-1.4,6-2.2
	c0.1,0,0.2,0,0.3,0c0.1,0,0.1,0.1,0.1,0.4c-0.2,3.5-0.5,10.6-0.5,13.3c0,2.6,0,3.5,0.1,4.1c0.1,0.7,0.2,1,0.7,1
	c1.6-0.1,2-0.1,2.1-0.1c0.2,0,0.5,0.3,0.4,0.5l-0.2,1.3c0,0.3-0.2,0.3-0.4,0.3c-1.5,0-2.9-0.1-4.5-0.1c-2.2,0-4.3,0.3-4.4,0.3
	c-0.3,0-0.4-0.1-0.4-0.3c-0.1-0.4-0.1-0.9-0.1-1.2c0-0.2,0.1-0.3,0.3-0.3c1.8-0.2,2.2-0.4,2.5-1.8c0.2-0.8,0.5-4.4,0.4-7.6
	L306.1,286.5 M309.1,270.8c1.3,0,2.2,1.1,2.2,2.3c0,1.7-1.2,2.7-2.5,2.7c-1.2,0-2.2-1-2.2-2.3C306.5,271.8,307.9,270.8,309.1,270.8
	L309.1,270.8z"/>
<path d="M334.5,284.3c-2.1,0.4-2.2,0.7-1.9,1.9c0.3,1.2,2.4,6.8,4.1,11c0.1,0.3,0.4,0.2,0.4,0.1c1.4-3.1,2.4-5.4,3.8-8.6
	c0.2-0.5,0.1-0.8-0.1-1.4c-0.8-2.3-0.9-2.4-3.1-2.8c0-0.2,0.1-0.7,0.3-1c0-0.3,0.3-0.4,0.6-0.4c3,0.1,5.4,0,7.7-0.1
	c0,1,0,1.4-0.2,1.5c-1.8,0.4-2.1,0.6-1.8,1.5c1.1,3.6,2.6,8,3.9,11.5c0.1,0.2,0.4,0.2,0.5,0c0.9-1.9,2.9-6.5,3.7-8.9
	c0.5-1.4,0.9-2.6,0.9-3c0-0.4-0.5-0.7-3.1-1.1c0-0.3,0.3-1.2,0.4-1.3c3.6-0.1,4.5-0.1,5.4-0.2c0.9-0.1,1.3-0.1,1.8-0.1
	c0.2,0,0.3,0,0.3,0.3v0.7c0,0.3,0,0.4-0.7,0.7c-0.8,0.4-1.1,0.9-1.9,2.5c-0.9,1.8-4.1,9-5.3,11.7c-0.9,2-1.5,3.4-1.7,4
	c-0.2,0.5-0.6,0.6-1.3,0.6c-0.4,0-0.6-0.1-0.7-0.6c-1.4-4-2.8-8-4.2-11.6c-0.1-0.2-0.3-0.3-0.3-0.1c-2.8,5.9-3.9,8.4-5.2,11.8
	c-0.1,0.3-0.3,0.5-0.6,0.5c-0.3,0-0.5,0-0.7-0.1c-0.3-0.1-0.5-0.3-0.7-0.9c-1.7-4.9-3.6-9.6-5.8-15c-0.9-2.1-1.2-2.5-2.9-2.8
	c-0.2-0.1-0.3-0.1-0.2-0.3l0.4-0.8c0.1-0.3,0.2-0.4,0.4-0.4c2.6,0,4.7-0.2,7.2-0.2c0.4,0,0.4,0.1,0.5,0.4L334.5,284.3"/>
<path d="M375.6,280.8c0-7.7-0.3-8.6-1-9.1c-0.6-0.5-1.4-0.6-2.9-0.7c0-0.4,0.2-1.4,0.5-1.6c1.7,0,3.4,0.1,5.1,0.1
	c3.6-0.1,5.3-0.2,5.8-0.2c0.3,0,0.4,0.1,0.5,0.2c0.1,0.2,0.2,1,0.2,1.3c-1.6,0.2-2.4,0.4-3.2,0.7c-0.6,0.3-0.8,1.5-0.8,6.3v6.7
	c0,0.5,0,0.6,0.3,0.6c0.4,0,1.1-0.7,2.4-1.7c3-2.4,8.7-7.3,12-10.7c0.8-0.8,0.8-1.3,0.5-1.3c-0.9-0.1-1.7-0.2-2.9-0.3l-0.1-1.4
	c0.1-0.3,0.1-0.3,0.3-0.4c5,0.1,10.8-0.2,11.1-0.2c0.3,0,0.3,0.1,0.3,0.4c-0.2,1-0.2,1.2-0.5,1.2c-3,0.5-4.2,1.4-5.7,2.4
	c-3,2.1-6.1,4.6-12.5,10.2c-0.3,0.3-0.5,0.7-0.2,1c3.1,3.4,8.8,8.1,13.1,12.2c2.8,2.6,4.3,3.7,5.3,4c0.8,0.2,1.5,0.3,2,0.4
	c0.4,0.1,0.6,0.3,0.5,0.6l-0.4,1.1c-3.1-0.2-6-0.2-11.9-0.2l0.2-1.5c0.2-0.1,1-0.3,1.5-0.4c0.4-0.1,0.5-0.4,0.1-0.8
	c-4.3-4.1-11.7-10.7-12.9-12c-1.5-1.4-2.2-1.5-2.4-1.5c-0.2,0-0.3,0.1-0.3,0.8v4.5c0,6.9,0.4,8,0.6,8.3c0.5,0.7,1.6,0.8,3.6,1
	c0.1,0,0.2,0.2,0.2,0.4l-0.2,1.4c-1.7-0.1-3-0.2-6.8-0.2c-1.6,0-5,0.2-5.6,0.2c-0.1-0.2,0-1.5,0.2-1.6c0.7-0.2,1.5-0.2,2.4-0.5
	c1-0.2,1.3-0.9,1.3-7.2V280.8"/>
<path d="M408.3,301.1c1.2-0.4,1.4-0.5,1.5-1.2c0.1-0.6,0.1-2,0.1-6.4v-4.6c0-1.2-0.1-1.5-2.1-2.1c-0.4-0.2-0.7-0.8-0.6-1.1
	c1.9-1.3,4-2.4,5.6-3.5c0.2-0.1,0.5-0.2,0.6-0.2c0.2,0,0.5,0.4,0.4,0.8c-0.1,1.3-0.2,2.5-0.2,4c1-0.5,4.1-3,4.8-3.5
	c0.5-0.4,1-0.7,1.5-0.7c1.3,0,2.8,1.3,2.8,2.4c0,0.8-1.3,2.3-1.7,2.7c-0.3,0.2-0.6,0.4-0.9,0.4s-0.5-0.1-0.7-0.4
	c-0.4-0.6-1.1-1.2-1.9-1.2c-1.1,0-2.5,0.9-3.4,1.7c-0.4,0.3-0.5,1-0.5,3.4v6.4c0,1.3,0.1,1.9,0.2,2.2c0.2,0.3,0.4,0.4,0.9,0.4
	l2.7-0.1c0.3,0,0.5,0.3,0.4,0.5l-0.3,1.6c-2.2,0-4.5,0-6.7,0c-1.3,0-2.6,0.1-3,0.1c-0.2,0-0.3-0.2-0.2-0.5L408.3,301.1"/>
<path d="M426.7,288.6c-0.3,0.1-0.6,0.2-0.9,0.2c-0.2,0-0.6-0.4-0.6-0.7c0-0.4,0.2-0.8,0.4-1.2c1-1.4,4.6-3.6,6-4.1
	c1.1-0.4,2-0.6,2.8-0.6c2.2,0,3.4,0.9,4.2,1.8c0.9,0.9,1,1.8,1,2.4c0,3.6-0.2,7.2-0.2,10.5c0,2.7,0.5,3.7,1.3,3.7
	c0.9,0,2.3-0.6,2.5-0.7c0.2-0.1,0.5,0.3,0.5,0.5l-0.1,0.9c0,0.2-0.1,0.4-0.3,0.6c-0.6,0.4-3.9,1.2-5.6,1.3c-0.9,0-1.7-0.5-2.1-2.6
	c-2,0.9-5.9,2.5-6.5,2.5c-0.7,0-1.7-0.2-2.9-1.1c-0.6-0.6-1.4-1.9-1.4-3.9c0-1.1,0.8-1.9,2.2-2.6c2.6-1.4,5.7-2.2,8.8-2.7
	c0.1-0.7,0.1-2.6,0.1-3.7c0-2.1-0.4-3.3-0.9-3.7c-0.4-0.4-1.7-0.8-2.9-0.8c-1,0-1.7,0.2-2,0.3c-0.2,0.2-0.4,0.5-0.4,2.2
	c0,0.4,0,0.5-0.3,0.6L426.7,288.6 M431.3,300.6c0.5,0,1.9-0.5,3.2-1.1c0.6-0.4,1-0.7,1.1-1.3c0.1-0.7,0.2-2.5,0.2-3.3
	c0-0.4-0.1-0.6-0.3-0.6c-3,0.5-4.9,1.1-6,1.9c-0.3,0.2-0.5,0.6-0.5,1.5C428.9,299.5,429.4,300.6,431.3,300.6L431.3,300.6z"/>
<path d="M444.8,301.7c0.1-0.3,0.1-0.5,0.4-0.6c1.6-0.4,2-0.5,2.2-1c0.4-1.2,0.6-5.8,0.6-13.3c0-4.3,0.1-9,0-13.1
	c-0.1-1.6-0.2-2-0.7-2.4c-0.7-0.6-1.2-1-1.5-1.2c-0.4-0.3-0.3-0.7-0.2-0.9c0.4-0.4,5.1-2.3,5.5-2.5c0.6-0.2,0.7,0.1,0.7,0.8
	c0,0.7,0.1,2.5,0,7.7l-0.3,15.8c0,0.5,0.1,0.6,0.3,0.6c0.2,0,0.8-0.3,1.5-0.9c0.7-0.5,4.5-3.9,5.9-5.4c0.4-0.4,0.1-0.6-0.4-0.6
	c-0.9,0-1.2,0-1.5,0c-0.2,0-0.3-0.1-0.2-0.4l0.2-1c0.1-0.3,0.2-0.4,0.4-0.4c2.6-0.1,6.2-0.2,8.9-0.4c0.3,0,0.3,0.1,0.3,0.2
	c0,0.3,0,0.6-0.2,1c-0.1,0.4-0.3,0.5-0.7,0.5c-1.5,0.2-2.9,0.7-4.2,1.6c-1.3,1-3.4,2.6-5.7,4.5c-0.4,0.4-0.6,0.6,0,1.2
	c1,1.1,4.8,5,6.7,6.7c2.4,2.3,2.7,2.6,5.4,3c0.3,0.1,0.3,0.2,0.3,1.2c0,0.4-0.1,0.4-0.3,0.4c-0.6,0-1.6,0-2.5-0.1
	c-1.3-0.1-3.1,0-6.5,0.1c-0.3,0-0.3-0.1-0.4-0.2l-0.2-0.6c-0.3-0.6-0.2-0.7,0-0.7c1.3-0.2,1.7-0.4,1.2-0.8c-2.3-2.2-4.5-4.5-6.8-6.8
	c-0.7-0.7-1.2-0.9-1.4-0.9c-0.2,0-0.2,0.3-0.3,1c-0.1,0.8-0.1,1.4-0.1,3.7c0,2.8,0.4,3.4,0.7,3.4c0.4,0,1.6-0.1,2.1-0.1
	c0.3,0,0.3,0.1,0.3,0.6c0,0.5-0.1,0.9-0.2,1.3c-0.1,0.2-0.3,0.3-0.5,0.3c-0.3,0-1.3-0.1-3.9-0.1c-1.9,0-4.1,0.1-5,0.1
	c-0.3,0-0.4-0.1-0.3-0.3L444.8,301.7"/>
<path d="M480.8,282.3c3.6,0,9.4,3.4,9.4,10.3c0,5.2-3.3,7.9-4,8.3c-2.2,1.4-4.6,2.2-6.8,2.2c-1.9,0-5.8-1.1-7.7-3.7
	c-1.5-2-2.1-4.7-2.1-6.5c0-2.1,0.8-4.5,2-6.1c1-1.3,2-2.1,3.4-2.9C476.7,283,479.2,282.3,480.8,282.3L480.8,282.3 M478.5,284.2
	c-0.9,0-1.9,0.4-2.6,1.2c-1.4,1.4-1.9,3.5-1.9,6.8c0,3.3,1.3,5.4,2.5,6.7c1.7,1.9,3.5,2.3,4.8,2.3c0.7,0,1.8-0.3,2.5-0.9
	c1.1-1.1,2.2-2.9,2.2-6c0-3.1-0.9-6.4-3.1-8.3C481.9,285.1,480.2,284.2,478.5,284.2L478.5,284.2z"/>
<path d="M501,284.3c-2.1,0.4-2.2,0.7-1.9,1.9c0.3,1.2,2.4,6.8,4.1,11c0.1,0.3,0.4,0.2,0.4,0.1c1.4-3.1,2.4-5.4,3.8-8.6
	c0.2-0.5,0.1-0.8-0.1-1.4c-0.8-2.3-0.9-2.4-3.1-2.8c0-0.2,0.1-0.7,0.3-1c0.1-0.3,0.3-0.4,0.6-0.4c3,0.1,5.4,0,7.7-0.1
	c0.1,1,0.1,1.4-0.2,1.5c-1.8,0.4-2.1,0.6-1.8,1.5c1.1,3.6,2.6,8,3.9,11.5c0.1,0.2,0.4,0.2,0.5,0c0.9-1.9,2.8-6.5,3.7-8.9
	c0.5-1.4,0.9-2.6,0.9-3c0-0.4-0.5-0.7-3.1-1.1c0-0.3,0.3-1.2,0.4-1.3c3.6-0.1,4.5-0.1,5.4-0.2c0.9-0.1,1.3-0.1,1.8-0.1
	c0.2,0,0.3,0,0.3,0.3v0.7c0,0.3,0,0.4-0.7,0.7c-0.8,0.4-1.1,0.9-1.9,2.5c-0.9,1.8-4.1,9-5.3,11.7c-0.9,2-1.5,3.4-1.7,4
	c-0.2,0.5-0.6,0.6-1.3,0.6c-0.4,0-0.6-0.1-0.7-0.6c-1.4-4-2.7-8-4.2-11.6c-0.1-0.2-0.3-0.3-0.3-0.1c-2.8,5.9-3.9,8.4-5.2,11.8
	c-0.1,0.3-0.3,0.5-0.6,0.5c-0.3,0-0.5,0-0.7-0.1c-0.3-0.1-0.5-0.3-0.7-0.9c-1.7-4.9-3.6-9.6-5.8-15c-0.9-2.1-1.2-2.5-2.8-2.8
	c-0.2-0.1-0.3-0.1-0.2-0.3l0.4-0.8c0.1-0.3,0.2-0.4,0.4-0.4c2.6,0,4.7-0.2,7.2-0.2c0.4,0,0.4,0.1,0.5,0.4L501,284.3"/>
<path d="M530,286.5c-0.1-0.3-0.4-0.4-2.7-0.8c-0.2-0.1-0.3-0.2-0.1-0.4c0.4-0.9,0.4-1,0.7-1.1c2-0.7,3.8-1.4,6-2.2
	c0.1,0,0.2,0,0.3,0s0.1,0.1,0.1,0.4c-0.2,3.5-0.5,10.6-0.5,13.3c0,2.6,0,3.5,0.1,4.1c0.1,0.7,0.2,1,0.7,1c1.6-0.1,2-0.1,2.1-0.1
	s0.5,0.3,0.4,0.5l-0.2,1.3c-0.1,0.3-0.2,0.3-0.4,0.3c-1.5,0-2.9-0.1-4.5-0.1c-2.2,0-4.3,0.3-4.4,0.3c-0.3,0-0.4-0.1-0.4-0.3
	c-0.1-0.4-0.1-0.9-0.1-1.2c0-0.2,0.1-0.3,0.3-0.3c1.8-0.2,2.2-0.4,2.5-1.8c0.2-0.8,0.5-4.4,0.4-7.6L530,286.5 M532.9,270.8
	c1.3,0,2.2,1.1,2.2,2.3c0,1.7-1.2,2.7-2.5,2.7c-1.2,0-2.2-1-2.2-2.3C530.3,271.8,531.7,270.8,532.9,270.8L532.9,270.8z"/>
<path d="M549.6,282.4c1.6,0,3.4,0.9,4.2,1.8c0.9,0.9,1.6,1.9,2,3.4c0.5-0.1,1.4-0.4,1.6-0.2c0.2,0.1,0.2,0.3,0.1,0.5
	c-0.2,0.5-0.5,1.4-1,1.5c-3.5,0.8-10,2.1-12.2,2.7c-0.3,0.1-0.4,0.3-0.4,0.9c0.2,5,2.9,7.1,6.2,7.1c2.3,0,4.3-1,6.1-2.5
	c0.3-0.2,0.9-0.2,0.8,0c-0.1,1.2-0.2,1.6-0.5,1.9c-2.2,1.8-4.6,2.9-6.3,3.4c-0.7,0.2-1.3,0.3-1.9,0.3c-3.6,0-5.9-2.1-6.5-2.9
	c-0.8-0.9-2.3-3.1-2.3-6.4c0-4.5,2.6-7.9,5.3-9.8C546.3,283.1,548.1,282.4,549.6,282.4L549.6,282.4 M551.9,288.1
	c0-1.4-1.9-3.8-4.1-3.8c-0.3,0-0.8,0.2-1.3,0.5c-1.5,1-2.3,3.6-2.2,5.7c2.3-0.6,4.7-1,7-1.6C551.6,288.8,551.9,288.7,551.9,288.1
	L551.9,288.1z"/>
<path d="M239.1,336.4c0-0.5-0.3-0.6-0.6-0.5c-1.7,0.3-4.2,0.6-5,0.6c-0.4-0.3-0.7-0.7-0.7-0.9c0-0.2,0.1-0.3,0.4-0.4
	c4-1.2,7.5-2.9,9.6-4c0.1-0.1,0.1-0.1,0.3-0.1c0.2,0,0.4,0.2,0.4,0.3c0,5.4-0.1,13.1-0.1,20.2c0,7,0.2,8.7,0.3,9.2
	c0.1,0.9,0.6,1.1,6.2,1.4c-0.1,1.4-0.2,1.6-0.7,1.6l-5.5-0.1c-3.3,0-7.4,0.3-11,0.3c-0.5,0-0.6-0.1-0.6-0.3c0.3-1.1,0.4-1.1,0.6-1.2
	c2.5-0.2,3.9-0.5,4.9-0.6c1-0.2,1.1-0.5,1.2-1.3c0.3-1.6,0.3-4.4,0.3-11.1L239.1,336.4"/>
<path d="M266.5,331c5.1,0,8.2,3.5,8.2,7.6c0,2.2-0.7,3.6-1.9,4.6c-1.2,1.1-2.7,2.3-3.9,3.3c4.5,2.2,7,4.6,7,8.8
	c0,2.8-1.4,5.1-3.5,6.6c-2,1.5-4.9,2.5-7.6,2.5c-2.8,0-5.3-0.8-7.3-2.6c-1.7-1.5-2.5-3.8-2.5-5.9c0-1.3,0.6-2.5,1.2-3.5
	c0.6-1,2.7-2.5,5.5-4.7c-3.1-1.8-5.3-4.4-5.3-7.8c0-1.9,0.5-3.8,1.7-5.1c1.1-1.2,2.4-2.2,4.2-3C263.9,331.3,265.2,331,266.5,331
	L266.5,331 M266.4,362.4c2.9,0,5.7-1.7,5.7-5.8c0-1.4-0.5-2.8-1.8-4.2c-1.5-1.5-3.6-2.6-5.3-3.3c-0.6-0.2-1.2-0.4-1.7-0.2
	c-1.8,1-3.9,3.7-3.9,6.5C259.4,359.9,263.2,362.4,266.4,362.4L266.4,362.4z M265.3,333c-1.6,0-2.7,0.6-3.5,1.3c-1,1-1.5,2.4-1.5,4.1
	c0,3.2,2.4,5.4,5.3,6.6c0.7,0.3,1.5,0.5,2,0.3c1.6-0.7,3.5-3,3.5-6c0-1.9-0.6-3.4-1.7-4.6C268.4,333.6,267.2,333,265.3,333
	L265.3,333z"/>
<path d="M289,336.4c0-0.5-0.3-0.6-0.6-0.5c-1.7,0.3-4.2,0.6-5,0.6c-0.4-0.3-0.7-0.7-0.7-0.9c0-0.2,0.1-0.3,0.4-0.4
	c4-1.2,7.5-2.9,9.6-4c0.1-0.1,0.1-0.1,0.3-0.1s0.4,0.2,0.4,0.3c0,5.4-0.1,13.1-0.1,20.2c0,7,0.2,8.7,0.3,9.2
	c0.1,0.9,0.6,1.1,6.2,1.4c-0.1,1.4-0.2,1.6-0.7,1.6l-5.5-0.1c-3.3,0-7.4,0.3-11,0.3c-0.5,0-0.6-0.1-0.6-0.3c0.3-1.1,0.4-1.1,0.6-1.2
	c2.5-0.2,3.9-0.5,4.9-0.6c1-0.2,1.1-0.5,1.2-1.3c0.3-1.6,0.3-4.4,0.3-11.1L289,336.4"/>
<path d="M316.4,331c5.1,0,8.2,3.5,8.2,7.6c0,2.2-0.7,3.6-1.9,4.6c-1.2,1.1-2.8,2.3-3.9,3.3c4.5,2.2,7,4.6,7,8.8
	c0,2.8-1.4,5.1-3.5,6.6c-2,1.5-4.9,2.5-7.6,2.5c-2.9,0-5.3-0.8-7.3-2.6c-1.7-1.5-2.5-3.8-2.5-5.9c0-1.3,0.6-2.5,1.2-3.5
	c0.6-1,2.8-2.5,5.5-4.7c-3.1-1.8-5.3-4.4-5.3-7.8c0-1.9,0.5-3.8,1.7-5.1c1.1-1.2,2.4-2.2,4.2-3C313.8,331.3,315.1,331,316.4,331
	L316.4,331 M316.3,362.4c2.9,0,5.7-1.7,5.7-5.8c0-1.4-0.5-2.8-1.8-4.2c-1.5-1.5-3.6-2.6-5.3-3.3c-0.6-0.2-1.2-0.4-1.7-0.2
	c-1.8,1-3.9,3.7-3.9,6.5C309.3,359.9,313.1,362.4,316.3,362.4L316.3,362.4z M315.1,333c-1.6,0-2.7,0.6-3.5,1.3c-1,1-1.5,2.4-1.5,4.1
	c0,3.2,2.4,5.4,5.3,6.6c0.7,0.3,1.5,0.5,2,0.3c1.6-0.7,3.5-3,3.5-6c0-1.9-0.6-3.4-1.7-4.6C318.3,333.6,317.1,333,315.1,333
	L315.1,333z"/>
<path d="M307.5,56c-4.3,7.4-12.6,10.7-18.5,7.2c-5.9-3.4-7.3-12.2-3-19.6c4.3-7.4,12.6-10.7,18.5-7.2
	C310.4,39.8,311.7,48.6,307.5,56"/>
<path d="M346.4,12.5L346.4,12.5c0-6.9-5.6-12.4-12.4-12.4V0H222.2v0.1c-6.8,0-12.4,5.6-12.4,12.4v86.9c0,37.7,30.6,68.3,68.3,68.3
	c37.7,0,68.3-30.6,68.3-68.3L346.4,12.5L346.4,12.5 M278.1,142.9c-24,0-43.5-19.5-43.5-43.5V24.9h86.9v74.5l0,0
	C321.5,123.4,302.1,142.9,278.1,142.9"/>
</svg>
